<?xml version="1.0" encoding="UTF-8"?>
<svg version="1.1" xmlns="http://www.w3.org/2000/svg" width="804" height="411">
<path d="M0 0 C23.66830737 21.25028953 34.36469232 52.44106081 39.20019531 83.1081543 C39.41289063 84.40495117 39.62558594 85.70174805 39.84472656 87.0378418 C46.71582819 136.17363332 43.82799789 197.24905457 13.41015625 238.51538086 C-0.83561717 257.04691267 -20.1722852 269.65246834 -43.67796326 272.89550781 C-48.03623623 273.33228476 -52.41144174 273.31414087 -56.78808594 273.34643555 C-57.84529343 273.35450729 -58.90250092 273.36257904 -59.991745 273.37089539 C-62.22828558 273.38468881 -64.4648468 273.39543203 -66.70141602 273.40332031 C-68.95571196 273.41477654 -71.20998216 273.43512583 -73.46411133 273.46484375 C-101.59814212 273.83494675 -125.54794391 268.6788911 -146.54980469 248.8581543 C-156.22845454 238.60489072 -163.03954918 226.88250676 -168.79980469 214.1081543 C-169.26 213.11041992 -169.72019531 212.11268555 -170.19433594 211.0847168 C-191.24944955 161.22086044 -189.53635526 91.63884893 -169.73730469 41.67456055 C-159.87123856 17.9040129 -144.17387232 -3.3609145 -119.76855469 -13.6496582 C-83.41235434 -28.16732182 -30.7741208 -26.25278156 0 0 Z M-51.79980469 -15.8918457 C-48.68542884 -13.81559514 -45.55362092 -12.31278001 -42.17480469 -10.7043457 C-36.09936048 -7.7298932 -30.93873505 -4.31954009 -25.79980469 0.1081543 C-25.14882813 0.61604492 -24.49785156 1.12393555 -23.82714844 1.6472168 C-0.15782678 20.75207682 9.65750716 54.29811275 14.20019531 83.1081543 C14.41289062 84.40495117 14.62558594 85.70174805 14.84472656 87.0378418 C21.715505 136.17132213 18.84729363 197.33686593 -11.640625 238.56616211 C-21.17535021 250.94317802 -31.77266675 258.90084444 -45.79589844 265.62768555 C-48.87441061 267.06420027 -48.87441061 267.06420027 -51.79980469 269.1081543 C-32.95774551 268.41796898 -15.81495469 261.8123634 -1.79980469 249.1081543 C-1.04183594 248.43139648 -0.28386719 247.75463867 0.49707031 247.05737305 C30.23046788 219.01570327 37.11253198 173.62363771 38.27099609 134.73120117 C39.35380814 89.05291164 32.34480039 39.78019001 -0.23730469 5.3581543 C-12.62043924 -6.51608432 -30.79080857 -15.96260109 -48.27636719 -15.98950195 C-50.02046875 -15.94116211 -50.02046875 -15.94116211 -51.79980469 -15.8918457 Z M-119.60449219 32.51049805 C-140.82075936 57.61515582 -144.02269251 94.32898484 -144.04980469 125.7956543 C-144.0508168 126.86656311 -144.0508168 126.86656311 -144.05184937 127.95910645 C-144.00222501 161.37531004 -139.98349862 198.4804589 -116.10839844 223.88549805 C-107.75753655 231.92549875 -97.70638312 236.33069475 -86.04980469 236.3581543 C-84.29894942 236.29530308 -82.54822956 236.21975588 -80.79980469 236.1081543 C-82.91688764 234.48456388 -85.04601796 232.94724326 -87.28027344 231.48706055 C-105.39673433 219.33099371 -114.1653062 197.80168182 -118.4296875 177.04174805 C-126.73008054 132.32015411 -128.39056893 74.58843368 -101.78808594 35.1237793 C-95.92031731 27.51527774 -89.32208514 21.54684203 -80.79980469 17.1081543 C-80.79980469 16.7781543 -80.79980469 16.4481543 -80.79980469 16.1081543 C-96.44817078 14.83650378 -109.0129822 21.45768536 -119.60449219 32.51049805 Z M-86.55761719 24.16674805 C-89.07990876 26.39207257 -91.45270516 28.69961237 -93.79980469 31.1081543 C-94.425 31.70112305 -95.05019531 32.2940918 -95.69433594 32.9050293 C-117.89698185 55.55874477 -120.02437081 96.27683602 -120.04980469 125.7956543 C-120.0508168 126.86656311 -120.0508168 126.86656311 -120.05184937 127.95910645 C-120.00215037 161.42557396 -115.949953 198.39715101 -92.12402344 223.8815918 C-85.94679281 229.79927491 -78.22546843 235.1081543 -69.42480469 235.1081543 C-55.19330742 231.18222402 -45.15011232 221.27804311 -37.79980469 208.8112793 C-24.16077485 184.30769908 -21.57350294 154.92508513 -21.54980469 127.4206543 C-21.54912994 126.70671509 -21.5484552 125.99277588 -21.54776001 125.25720215 C-21.5934765 94.47248505 -24.6547547 57.39475457 -45.79980469 33.1081543 C-46.83041016 31.89579102 -46.83041016 31.89579102 -47.88183594 30.65893555 C-59.34366961 18.16450425 -72.34320902 13.55627623 -86.55761719 24.16674805 Z " fill="#D3FB53" transform="translate(472.7998046875,105.891845703125)"/>
<path d="M0 0 C23.1 0 46.2 0 70 0 C70 63.36 70 126.72 70 192 C82.54 192 95.08 192 108 192 C108 204.21 108 216.42 108 229 C95.46 229 82.92 229 70 229 C70 247.81 70 266.62 70 286 C49.21 286 28.42 286 7 286 C7 267.19 7 248.38 7 229 C-36.23 229 -79.46 229 -124 229 C-124 190.58032158 -124 190.58032158 -110.93164062 174.46533203 C-108.07806418 170.82334329 -105.76736494 166.92643068 -103.4375 162.9375 C-102.56306184 161.48506836 -101.68541775 160.03456236 -100.8046875 158.5859375 C-100.35706055 157.84956055 -99.90943359 157.11318359 -99.44824219 156.35449219 C-94.96789626 149.07053128 -90.31613523 141.89183189 -85.71240234 134.68554688 C-83.08754742 130.56900794 -80.47999925 126.44162334 -77.875 122.3125 C-77.14422241 121.15439819 -77.14422241 121.15439819 -76.39868164 119.97290039 C-75.42160334 118.42422235 -74.44463343 116.87547591 -73.46777344 115.32666016 C-70.98016643 111.38339755 -68.48993586 107.44179232 -66 103.5 C-64.99998776 101.9166744 -63.99998775 100.33334107 -63 98.75 C-57 89.25 -51 79.75 -45 70.25 C-44.50516113 69.4664917 -44.01032227 68.6829834 -43.50048828 67.87573242 C-42.49890965 66.28992675 -41.49728192 64.70415209 -40.49560547 63.1184082 C-38.01935816 59.19815243 -35.54392299 55.27738893 -33.0703125 51.35546875 C-25.41235856 39.21648578 -17.71989999 27.09968482 -10 15 C-9.51241211 14.23558594 -9.02482422 13.47117187 -8.52246094 12.68359375 C-7.24582885 10.68380902 -5.96722517 8.68530637 -4.6875 6.6875 C-3.99011719 5.59824219 -3.29273438 4.50898437 -2.57421875 3.38671875 C-1 1 -1 1 0 0 Z M46 4 C46 66.04 46 128.08 46 192 C52.6 192 59.2 192 66 192 C66 129.96 66 67.92 66 4 C59.4 4 52.8 4 46 4 Z M6 56 C4.99750091 57.46544332 4.04572582 58.9655775 3.11328125 60.4765625 C2.51169189 61.44634033 1.91010254 62.41611816 1.2902832 63.4152832 C0.63761475 64.47448975 -0.01505371 65.53369629 -0.6875 66.625 C-2.06172777 68.84032297 -3.43674498 71.0551564 -4.8125 73.26953125 C-5.16289841 73.83417587 -5.51329681 74.3988205 -5.87431335 74.98057556 C-9.27169253 80.45041427 -12.72295123 85.88504788 -16.1875 91.3125 C-21.99437516 100.41694638 -27.77147915 109.5396498 -33.53222656 118.67333984 C-36.01983357 122.61660245 -38.51006414 126.55820768 -41 130.5 C-42.00001224 132.0833256 -43.00001225 133.66665893 -44 135.25 C-50 144.75 -50 144.75 -51.50097656 147.12646484 C-52.4978194 148.70485345 -53.49456469 150.28330366 -54.49121094 151.86181641 C-57.03870646 155.89632289 -59.58805099 159.92964187 -62.140625 163.9609375 C-66.70175424 171.16683882 -71.26008956 178.37442904 -75.75 185.625 C-76.38421875 186.64851562 -77.0184375 187.67203125 -77.671875 188.7265625 C-79.08407073 190.70508405 -79.08407073 190.70508405 -79 192 C-67.87057732 193.45440809 -67.87057732 193.45440809 -57.56640625 190.40625 C-55.71671636 187.71243729 -54.38952915 184.95924663 -53 182 C-51.81231427 179.96772606 -50.57236017 177.97336197 -49.32641602 175.97631836 C-47.89215934 173.67732265 -46.48783118 171.36182137 -45.0859375 169.04296875 C-41.81606664 163.67043336 -38.44711297 158.3632818 -35.0625 153.0625 C-34.17413452 151.67115845 -34.17413452 151.67115845 -33.26782227 150.25170898 C-32.08280427 148.39624371 -30.89766565 146.54085546 -29.71240234 144.68554688 C-27.08754713 140.56900747 -24.4800798 136.44157295 -21.875 132.3125 C-21.14531006 131.15657349 -21.14531006 131.15657349 -20.40087891 129.97729492 C-17.92244319 126.05014961 -15.44665282 122.12134941 -12.97265625 118.19140625 C-12.47040527 117.39661865 -11.9681543 116.60183105 -11.45068359 115.78295898 C-10.44336137 114.17998721 -9.44493201 112.57139195 -8.45556641 110.95727539 C-6.09477779 107.13711148 -3.70213396 103.54935086 -0.80078125 100.1171875 C9.8734702 86.92770035 8.09220361 72.11725913 7 56 C6.67 56 6.34 56 6 56 Z M6 94 C4.99750091 95.46544332 4.04572582 96.9655775 3.11328125 98.4765625 C2.51169189 99.44634033 1.91010254 100.41611816 1.2902832 101.4152832 C0.63761475 102.47448975 -0.01505371 103.53369629 -0.6875 104.625 C-2.06172777 106.84032297 -3.43674498 109.0551564 -4.8125 111.26953125 C-5.16289841 111.83417587 -5.51329681 112.3988205 -5.87431335 112.98057556 C-9.27169253 118.45041427 -12.72295123 123.88504788 -16.1875 129.3125 C-21.98870084 138.40804976 -27.7598281 147.52202175 -33.51464844 156.64697266 C-35.05198756 159.08235636 -36.59206842 161.51598793 -38.1328125 163.94921875 C-42.69681132 171.15885959 -47.25761796 178.37043775 -51.75 185.625 C-52.38421875 186.64851563 -53.0184375 187.67203125 -53.671875 188.7265625 C-55.08407073 190.70508405 -55.08407073 190.70508405 -55 192 C-34.54 192 -14.08 192 7 192 C7 159.66 7 127.32 7 94 C6.67 94 6.34 94 6 94 Z M84 196 C84 205.57 84 215.14 84 225 C90.6 225 97.2 225 104 225 C104 215.43 104 205.86 104 196 C97.4 196 90.8 196 84 196 Z M46 229 C46 246.82 46 264.64 46 283 C52.6 283 59.2 283 66 283 C66 265.18 66 247.36 66 229 C59.4 229 52.8 229 46 229 Z " fill="#D3FA53" transform="translate(167,89)"/>
<path d="M0 0 C23.1 0 46.2 0 70 0 C70 63.36 70 126.72 70 192 C82.87 192 95.74 192 109 192 C109 204.21 109 216.42 109 229 C96.13 229 83.26 229 70 229 C70 247.81 70 266.62 70 286 C49.21 286 28.42 286 7 286 C7 267.19 7 248.38 7 229 C-36.23 229 -79.46 229 -124 229 C-124 191.61061202 -124 191.61061202 -111.08251953 174.78222656 C-107.70278916 170.26693848 -104.78582386 165.47562288 -101.8125 160.6875 C-100.65738559 158.87084355 -99.49986943 157.0557118 -98.33984375 155.2421875 C-93.69148478 147.95238011 -89.07999678 140.63936029 -84.46777344 133.32666016 C-81.98016643 129.38339755 -79.48993586 125.44179232 -77 121.5 C-75.99998776 119.9166744 -74.99998775 118.33334107 -74 116.75 C-68 107.25 -62 97.75 -56 88.25 C-55.50516113 87.4664917 -55.01032227 86.6829834 -54.50048828 85.87573242 C-53.49890965 84.28992675 -52.49728192 82.70415209 -51.49560547 81.1184082 C-49.01935816 77.19815243 -46.54392299 73.27738893 -44.0703125 69.35546875 C-38.14273904 59.95963423 -32.19142229 50.5792838 -26.22241211 41.2097168 C-21.91168753 34.44049018 -17.61919394 27.65998512 -13.34570312 20.8671875 C-8.94354446 13.88045252 -4.46634946 6.94765471 0 0 Z M46 4 C46 66.04 46 128.08 46 192 C52.93 192 59.86 192 67 192 C67 129.96 67 67.92 67 4 C60.07 4 53.14 4 46 4 Z M6 57 C4.96314743 58.43851271 3.97582289 59.91272624 3.0078125 61.3984375 C2.39091553 62.34340088 1.77401855 63.28836426 1.13842773 64.26196289 C0.14178101 65.80291626 0.14178101 65.80291626 -0.875 67.375 C-1.5568335 68.42486084 -2.23866699 69.47472168 -2.94116211 70.55639648 C-7.35630944 77.38216344 -11.66181797 84.26386095 -15.86694336 91.22045898 C-21.19129353 100.01282919 -26.75413827 108.65285472 -32.28759766 117.31445312 C-34.91245258 121.43099206 -37.52000075 125.55837666 -40.125 129.6875 C-40.85577759 130.84560181 -40.85577759 130.84560181 -41.60131836 132.02709961 C-42.57839666 133.57577765 -43.55536657 135.12452409 -44.53222656 136.67333984 C-47.51729909 141.40516638 -50.50582498 146.13481301 -53.49389648 150.86474609 C-56.03279721 154.88401551 -58.57036477 158.90411582 -61.10546875 162.92578125 C-62.13274531 164.55472987 -63.16008828 166.18363662 -64.1875 167.8125 C-64.6815332 168.59608887 -65.17556641 169.37967773 -65.68457031 170.18701172 C-68.02404394 173.89234569 -70.37424908 177.58985237 -72.75390625 181.26953125 C-73.17712158 181.92397217 -73.60033691 182.57841309 -74.03637695 183.25268555 C-74.82569931 184.47041099 -75.61709394 185.68679655 -76.41088867 186.90161133 C-78.22746464 189.26580679 -78.22746464 189.26580679 -79 192 C-72.31295398 193.26007148 -65.55588323 194.33875252 -59 192 C-53.56028246 187.35277126 -50.68923616 180.31655383 -47.56396484 174.01953125 C-45.01374589 169.09584908 -41.96909451 164.51192034 -38.9375 159.875 C-37.75951844 158.03395809 -36.58371688 156.1915194 -35.41015625 154.34765625 C-34.8392627 153.45320801 -34.26836914 152.55875977 -33.68017578 151.63720703 C-31.0672874 147.53601256 -28.46995855 143.42505542 -25.875 139.3125 C-25.38765381 138.54019043 -24.90030762 137.76788086 -24.39819336 136.97216797 C-23.42128403 135.42373014 -22.44447695 133.87522781 -21.46777344 132.32666016 C-19.48043948 129.17641188 -17.49137943 126.02725531 -15.50219727 122.87817383 C-14.50777205 121.30386926 -13.51346693 119.72948884 -12.51928711 118.1550293 C-9.90915828 114.02150236 -7.29745478 109.88898052 -4.68359375 105.7578125 C-4.14025391 104.89865234 -3.59691406 104.03949219 -3.03710938 103.15429688 C-1.99851439 101.51207403 -0.95947752 99.87013053 0.08007812 98.22851562 C0.54994141 97.48537109 1.01980469 96.74222656 1.50390625 95.9765625 C2.11987671 95.00323975 2.11987671 95.00323975 2.74829102 94.01025391 C3.16135498 93.34687012 3.57441895 92.68348633 4 92 C4.54043945 91.23840576 5.08087891 90.47681152 5.63769531 89.69213867 C7.37466859 86.2595931 7.3419383 83.78516717 7.29296875 79.94921875 C7.28872391 79.29041214 7.28447906 78.63160553 7.28010559 77.95283508 C7.26341196 75.86396115 7.22578058 73.77607861 7.1875 71.6875 C7.17244097 70.26498797 7.15875469 68.8424607 7.14648438 67.41992188 C7.11354003 63.94629649 7.06182408 60.47324513 7 57 C6.67 57 6.34 57 6 57 Z M6 95 C4.96314743 96.43851271 3.97582289 97.91272624 3.0078125 99.3984375 C2.39091553 100.34340088 1.77401855 101.28836426 1.13842773 102.26196289 C0.47399658 103.28926514 -0.19043457 104.31656738 -0.875 105.375 C-1.5568335 106.42486084 -2.23866699 107.47472168 -2.94116211 108.55639648 C-7.35630944 115.38216344 -11.66181797 122.26386095 -15.86694336 129.22045898 C-21.18688609 138.00555096 -26.74532769 146.63819188 -32.27441406 155.29248047 C-35.46349148 160.2962819 -38.62342248 165.31846699 -41.78588867 170.33911133 C-45.28537097 175.88773823 -48.82297788 181.41074289 -52.41137695 186.90234375 C-54.22765233 189.26618655 -54.22765233 189.26618655 -55 192 C-34.54 192 -14.08 192 7 192 C7 159.99 7 127.98 7 95 C6.67 95 6.34 95 6 95 Z M85 196 C85 205.57 85 215.14 85 225 C91.6 225 98.2 225 105 225 C105 215.43 105 205.86 105 196 C98.4 196 91.8 196 85 196 Z M46 229 C46 246.82 46 264.64 46 283 C52.93 283 59.86 283 67 283 C67 265.18 67 247.36 67 229 C60.07 229 53.14 229 46 229 Z " fill="#D4FA54" transform="translate(653,89)"/>
</svg>
